PathFileType	4	(X/Y/Z)	/Users/visionmauri/Downloads/Videos/OAW09-top_Sports2D/OAW09-top_Sports2D_m_person00.trc
DataRate	CameraRate	NumFrames	NumMarkers	Units	OrigDataRate	OrigDataStartFrame	OrigNumFrames
30.0	30.0	6	22	m	30.0	1548	2065
Frame#	Time	Hip			RHip			RKnee			RAnkle			RBigToe			RSmallToe			RHeel			LHip			LKnee			LAnkle			LBigToe			LSmallToe			LHeel			Neck			Head			Nose			RShoulder			RElbow			RWrist			LShoulder			LElbow			LWrist			
		X1	Y1	Z1	X2	Y2	Z2	X3	Y3	Z3	X4	Y4	Z4	X5	Y5	Z5	X6	Y6	Z6	X7	Y7	Z7	X8	Y8	Z8	X9	Y9	Z9	X10	Y10	Z10	X11	Y11	Z11	X12	Y12	Z12	X13	Y13	Z13	X14	Y14	Z14	X15	Y15	Z15	X16	Y16	Z16	X17	Y17	Z17	X18	Y18	Z18	X19	Y19	Z19	X20	Y20	Z20	X21	Y21	Z21	X22	Y22	Z22
1548	51.62499999999999	7.57912749475764	0.13231313444902465	0.0301	7.577832647446084	0.08301792563313992	0.0301	7.769840284156193	0.058909755982750105	0.129	7.937379111447807	0.04184251268229642	0.023	8.007767421772472	0.025800335472407596	0.2179	7.99413107975747	0.0013268945223424255	0.1804	7.967617916782713	0.043606612993330476	-0.0119	7.590709335235106	0.17956822679118867	0.0301	7.7826252127561375	0.12826273154966145	0.129	7.96694706777114	0.09606631020775636	0.023	8.039912886783119	0.0724955599763146	0.2179	8.041191002707874	0.10523077689786695	0.1804	7.995377353238301	0.08812685088658455	-0.0119	7.330196357819012	0.1763526744186059	0.0008	7.228734358412721	0.20474247994832065	0.0655	7.334102652934101	0.18429644327446573	0.1076	7.321481523699707	0.07807477621907741	-0.01275	7.449067900078991	0.00844711496873484	0.0702	7.5708157277963375	0.0013172197989165353	0.1076	7.358492079477163	0.27330445813923643	-0.01275	7.5081633811189	0.27247344546370855	0.0702	7.622688593847796	0.24823908520473925	0.1076
1549	51.65834948320413	7.583673475450096	0.13146103279245328	0.0301	7.57954041053572	0.08179004703631389	0.0301	7.772212027393073	0.058153259319408006	0.129	7.938059912899503	0.041721863059982135	0.023	8.006429170352696	0.025090453531963514	0.2179	7.992719605452896	0.00035375708684810304	0.1804	7.96925520118369	0.04362779445595175	-0.0119	7.594691272889166	0.17874996615771202	0.0301	7.788601816315178	0.1258021456561074	0.129	7.976024870626837	0.09539121214099561	0.023	8.04711776017779	0.07135621489873124	0.2179	8.047970545375925	0.10298672595480993	0.1804	8.005259053494742	0.08733207919662304	-0.0119	7.332644540967986	0.17592871268703622	0.0008	7.236429132295298	0.20468309602743606	0.0655	7.338929466989475	0.18510840404763687	0.1076	7.324404257483735	0.0780085806475311	-0.01275	7.4498617222107955	0.007819862918799008	0.0702	7.56880907619452	0.0019095385673951158	0.1076	7.3609284062093	0.2741542194197928	-0.01275	7.511120962421613	0.2722769191555495	0.0702	7.625254003971727	0.24686464823609705	0.1076
1550	51.69169896640826	7.589513952866821	0.1304234697316571	0.0301	7.583764459615724	0.08063647639170052	0.0301	7.776321179665674	0.057224226928329534	0.129	7.938291071790885	0.04034967441143243	0.023	8.006127916964775	0.025679664539206	0.2179	7.992388933270966	-8.732428334939806e-05	0.1804	7.969999048310436	0.042822594659036047	-0.0119	7.601409393111972	0.17756740691850237	0.0301	7.795628329473492	0.12387435614088148	0.129	7.9805382071396025	0.09493842902091267	0.023	8.050398820327532	0.07018117558629174	0.2179	8.05119401918249	0.09983011423814521	0.1804	8.010354803287441	0.08645974041147893	-0.0119	7.332451641840691	0.17679910352495204	0.0008	7.2382572587384475	0.2060171879411496	0.0655	7.340514781879636	0.18696794549957516	0.1076	7.326996628371612	0.07825067727655081	-0.01275	7.451805346387225	0.00817455001782702	0.0702	7.568509755380529	0.002446279470169184	0.1076	7.363024104558841	0.2748453599583	-0.01275	7.514149238822138	0.27185313080204787	0.0702	7.629739577635721	0.24570591053334423	0.1076
1551	51.725048449612395	7.595749541436683	0.12975954872301043	0.0301	7.590136654825916	0.07991411285308705	0.0301	7.781146568575694	0.0562008899632687	0.129	7.93817153405098	0.038772391540611156	0.023	8.007042258473128	0.02599338579644012	0.2179	7.993027044735965	-0.00014006439165050355	0.1804	7.968924327920314	0.04273427361123785	-0.0119	7.608991852236794	0.17655046712643496	0.0301	7.803730508225245	0.12293824319277138	0.129	7.9843637798624	0.09321101264993573	0.023	8.05528575609074	0.06837663691412288	0.2179	8.056184617061176	0.09687904522185613	0.1804	8.014346545349541	0.08323548550628511	-0.0119	7.335296228222599	0.17776548901817105	0.0008	7.237305115093092	0.20879773205312932	0.0655	7.34294647025727	0.18839500128600478	0.1076	7.33058344016319	0.07813644596407086	-0.01275	7.455349721824444	0.007890054509861263	0.0702	7.570399304866936	0.003108563189284265	0.1076	7.366687192634857	0.2754435327763955	-0.01275	7.5189972568837735	0.27206507842336575	0.0702	7.636090110093421	0.24449583601337116	0.1076
1552	51.75839793281653	7.601940533432939	0.130067620941938	0.0301	7.597601098397561	0.0799646148644411	0.0301	7.785159554372233	0.05544293673875631	0.129	7.938175133749749	0.03755982348204058	0.023	8.008554091468895	0.02503727557394718	0.2179	7.993887508326043	-0.0003233797462156256	0.1804	7.966627134946394	0.043196666128963654	-0.0119	7.6164735230853715	0.17632790284188427	0.0301	7.812416365098785	0.12395568233524672	0.129	7.990226672857247	0.08934291819926148	0.023	8.064994266933265	0.06637310215274368	0.2179	8.065285550693595	0.09532054556670412	0.1804	8.019924202020967	0.07679622377217857	-0.0119	7.342277781967172	0.17842997728604681	0.0008	7.241641401207075	0.21188303108247075	0.0655	7.3483527559255695	0.18939760697900343	0.1076	7.335299334702641	0.07798474233830964	-0.01275	7.459850465402701	0.007404178012772209	0.0702	7.574186824846194	0.00414175700006035	0.1076	7.372842564037749	0.27667366292746653	-0.01275	7.525441192161381	0.27297827952425546	0.0702	7.643374247465258	0.24349461804849395	0.1076
1553	51.79174741602066	7.606870530739896	0.13136969195662024	0.0301	7.604161608233909	0.08047127148097931	0.0301	7.788049659591244	0.054989182200512465	0.129	7.938454980976017	0.03669327696755067	0.023	8.01052097165443	0.023285817919115617	0.2179	7.995039591956498	-0.0010510652340087565	0.1804	7.9638402280350915	0.043118035987633314	-0.0119	7.622738128821437	0.17776965123139474	0.0301	7.820399528664593	0.12682982129475415	0.129	7.998574398902226	0.08465039901436941	0.023	8.077023629716097	0.06495400563788746	0.2179	8.07597689386348	0.09460651565820506	0.1804	8.027161526530325	0.07010624078897071	-0.0119	7.348752518036237	0.1798340423289421	0.0008	7.252236042534245	0.21396587907433992	0.0655	7.354676544447051	0.1907167267756383	0.1076	7.339526110725893	0.07906840943979523	-0.01275	7.464517799671005	0.008179814441683801	0.0702	7.579748757216531	0.005053973142121039	0.1076	7.379085700341997	0.27898206622194444	-0.01275	7.530998224137102	0.2744058755014249	0.0702	7.650218171523692	0.2437062784627199	0.1076
